<svg width="613.2px" height="124.6px" xmlns="http://www.w3.org/2000/svg" viewBox="-56.58749999999998 12.679997253417973 613.175 124.64000549316405" style="background: rgba(0, 0, 0, 0)" preserveAspectRatio="xMidYMid"><defs><filter id="editing-hole" x="-100%" y="-100%" width="300%" height="300%"><feFlood flood-color="#000" result="black"></feFlood><feMorphology operator="dilate" radius="2" in="SourceGraphic" result="erode"></feMorphology><feGaussianBlur in="erode" stdDeviation="4" result="blur"></feGaussianBlur><feOffset in="blur" dx="2" dy="2" result="offset"></feOffset><feComposite operator="atop" in="offset" in2="black" result="merge"></feComposite><feComposite operator="in" in="merge" in2="SourceGraphic" result="inner-shadow"></feComposite></filter></defs><g filter="url(#editing-hole)"><g transform="matrix(1.4,0,0,1.5,-20.9,174.5)"><path d="M -16.1 -104.3 L -9.6 -104.3 L -9.6 -59.5 L -16.1 -59.5 L -16.1 -104.3 Z M 41.7 -86.6 L 27.6 -86.6 L 27.6 -59.5 L 21.4 -59.5 L 21.4 -86.6 L 7.4 -86.6 L 7.4 -59.5 L 1.2 -59.5 L 1.2 -92.8 L 7.4 -92.8 L 7.4 -86.9 L 7.4 -86.9 Q 7.4 -88.1 7.9 -89.2 L 7.9 -89.2 L 7.9 -89.2 Q 8.4 -90.3 9.2 -91.1 L 9.2 -91.1 L 9.2 -91.1 Q 10.1 -91.9 11.2 -92.3 L 11.2 -92.3 L 11.2 -92.3 Q 12.3 -92.8 13.5 -92.8 L 13.5 -92.8 L 21.4 -92.8 L 21.4 -92.8 Q 22.7 -92.8 23.8 -92.3 L 23.8 -92.3 L 23.8 -92.3 Q 24.9 -91.9 25.7 -91.1 L 25.7 -91.1 L 25.7 -91.1 Q 26.5 -90.3 27.1 -89.2 L 27.1 -89.2 L 27.1 -89.2 Q 27.6 -88.1 27.6 -86.9 L 27.6 -86.9 L 27.6 -86.9 Q 27.7 -88.1 28.1 -89.2 L 28.1 -89.2 L 28.1 -89.2 Q 28.6 -90.3 29.5 -91.1 L 29.5 -91.1 L 29.5 -91.1 Q 30.3 -91.9 31.4 -92.3 L 31.4 -92.3 L 31.4 -92.3 Q 32.5 -92.8 33.7 -92.8 L 33.7 -92.8 L 41.7 -92.8 L 41.7 -92.8 Q 42.9 -92.8 44.1 -92.3 L 44.1 -92.3 L 44.1 -92.3 Q 45.2 -91.8 46 -91 L 46 -91 L 46 -91 Q 46.9 -90.2 47.3 -89 L 47.3 -89 L 47.3 -89 Q 47.8 -87.9 47.8 -86.6 L 47.8 -86.6 L 47.8 -59.5 L 41.7 -59.5 L 41.7 -86.6 Z M 58.1 -65.7 L 58.1 -74 L 58.1 -74 Q 58.1 -75.3 58.6 -76.4 L 58.6 -76.4 L 58.6 -76.4 Q 59 -77.5 59.9 -78.4 L 59.9 -78.4 L 59.9 -78.4 Q 60.7 -79.2 61.8 -79.7 L 61.8 -79.7 L 61.8 -79.7 Q 62.9 -80.2 64.2 -80.2 L 64.2 -80.2 L 80.1 -80.2 L 80.1 -86.6 L 60 -86.6 L 60 -92.8 L 80.1 -92.8 L 80.1 -92.8 Q 81.4 -92.8 82.5 -92.3 L 82.5 -92.3 L 82.5 -92.3 Q 83.6 -91.8 84.4 -91 L 84.4 -91 L 84.4 -91 Q 85.3 -90.2 85.7 -89 L 85.7 -89 L 85.7 -89 Q 86.2 -87.9 86.2 -86.6 L 86.2 -86.6 L 86.2 -59.5 L 80.1 -59.5 L 80.1 -65.1 L 80.1 -65.1 Q 80 -64 79.4 -62.9 L 79.4 -62.9 L 79.4 -62.9 Q 78.9 -61.9 78.1 -61.1 L 78.1 -61.1 L 78.1 -61.1 Q 77.3 -60.4 76.2 -59.9 L 76.2 -59.9 L 76.2 -59.9 Q 75.1 -59.5 73.9 -59.5 L 73.9 -59.5 L 64.2 -59.5 L 64.2 -59.5 Q 62.9 -59.5 61.8 -60 L 61.8 -60 L 61.8 -60 Q 60.7 -60.5 59.9 -61.3 L 59.9 -61.3 L 59.9 -61.3 Q 59 -62.1 58.6 -63.3 L 58.6 -63.3 L 58.6 -63.3 Q 58.1 -64.4 58.1 -65.7 L 58.1 -65.7 Z M 64.2 -74 L 64.2 -65.7 L 80.1 -65.7 L 80.1 -74 L 64.2 -74 Z M 96.5 -66.9 L 96.5 -86.6 L 96.5 -86.6 Q 96.5 -87.9 97 -89 L 97 -89 L 97 -89 Q 97.4 -90.2 98.3 -91 L 98.3 -91 L 98.3 -91 Q 99.1 -91.8 100.2 -92.3 L 100.2 -92.3 L 100.2 -92.3 Q 101.4 -92.8 102.6 -92.8 L 102.6 -92.8 L 113.6 -92.8 L 113.6 -92.8 Q 114.9 -92.8 115.9 -92.3 L 115.9 -92.3 L 115.9 -92.3 Q 117 -91.9 117.9 -91.1 L 117.9 -91.1 L 117.9 -91.1 Q 118.7 -90.3 119.2 -89.2 L 119.2 -89.2 L 119.2 -89.2 Q 119.7 -88.1 119.8 -86.9 L 119.8 -86.9 L 119.8 -92.8 L 125.9 -92.8 L 125.9 -52.2 L 125.9 -52.2 Q 125.9 -50.9 125.4 -49.8 L 125.4 -49.8 L 125.4 -49.8 Q 124.9 -48.7 124.1 -47.9 L 124.1 -47.9 L 124.1 -47.9 Q 123.3 -47 122.2 -46.6 L 122.2 -46.6 L 122.2 -46.6 Q 121 -46.1 119.8 -46.1 L 119.8 -46.1 L 100.3 -46.1 L 100.3 -52.2 L 119.8 -52.2 L 119.8 -60.8 L 102.6 -60.8 L 102.6 -60.8 Q 101.4 -60.8 100.2 -61.3 L 100.2 -61.3 L 100.2 -61.3 Q 99.1 -61.8 98.3 -62.6 L 98.3 -62.6 L 98.3 -62.6 Q 97.4 -63.4 97 -64.5 L 97 -64.5 L 97 -64.5 Q 96.5 -65.7 96.5 -66.9 L 96.5 -66.9 Z M 102.6 -66.9 L 119.8 -66.9 L 119.8 -86.6 L 102.6 -86.6 L 102.6 -66.9 Z M 164.3 -86.6 L 164.3 -73 L 142.3 -73 L 142.3 -65.7 L 164.3 -65.7 L 164.3 -59.5 L 142.3 -59.5 L 142.3 -59.5 Q 141 -59.5 139.9 -60 L 139.9 -60 L 139.9 -60 Q 138.8 -60.5 138 -61.3 L 138 -61.3 L 138 -61.3 Q 137.1 -62.1 136.6 -63.3 L 136.6 -63.3 L 136.6 -63.3 Q 136.2 -64.4 136.2 -65.7 L 136.2 -65.7 L 136.2 -86.6 L 136.2 -86.6 Q 136.2 -87.9 136.6 -89 L 136.6 -89 L 136.6 -89 Q 137.1 -90.2 138 -91 L 138 -91 L 138 -91 Q 138.8 -91.8 139.9 -92.3 L 139.9 -92.3 L 139.9 -92.3 Q 141 -92.8 142.3 -92.8 L 142.3 -92.8 L 158.2 -92.8 L 158.2 -92.8 Q 159.4 -92.8 160.6 -92.3 L 160.6 -92.3 L 160.6 -92.3 Q 161.7 -91.8 162.5 -91 L 162.5 -91 L 162.5 -91 Q 163.4 -90.2 163.8 -89 L 163.8 -89 L 163.8 -89 Q 164.3 -87.9 164.3 -86.6 L 164.3 -86.6 Z M 158.2 -86.6 L 142.3 -86.6 L 142.3 -79.2 L 158.2 -79.2 L 158.2 -86.6 Z M 194.4 -65.9 L 194.4 -97.9 L 194.4 -97.9 Q 194.4 -99.2 194.9 -100.4 L 194.9 -100.4 L 194.9 -100.4 Q 195.4 -101.6 196.3 -102.4 L 196.3 -102.4 L 196.3 -102.4 Q 197.1 -103.3 198.3 -103.8 L 198.3 -103.8 L 198.3 -103.8 Q 199.5 -104.3 200.8 -104.3 L 200.8 -104.3 L 225.1 -104.3 L 225.1 -104.3 Q 226.4 -104.3 227.6 -103.8 L 227.6 -103.8 L 227.6 -103.8 Q 228.8 -103.3 229.6 -102.4 L 229.6 -102.4 L 229.6 -102.4 Q 230.5 -101.6 231 -100.4 L 231 -100.4 L 231 -100.4 Q 231.5 -99.2 231.5 -97.9 L 231.5 -97.9 L 231.5 -92.1 L 225.1 -92.1 L 225.1 -97.9 L 200.8 -97.9 L 200.8 -65.9 L 225.1 -65.9 L 225.1 -76.8 L 212.9 -76.8 L 212.9 -83.2 L 231.5 -83.2 L 231.5 -65.9 L 231.5 -65.9 Q 231.5 -64.6 231 -63.4 L 231 -63.4 L 231 -63.4 Q 230.5 -62.3 229.6 -61.4 L 229.6 -61.4 L 229.6 -61.4 Q 228.8 -60.5 227.6 -60 L 227.6 -60 L 227.6 -60 Q 226.4 -59.5 225.1 -59.5 L 225.1 -59.5 L 200.8 -59.5 L 200.8 -59.5 Q 199.5 -59.5 198.3 -60 L 198.3 -60 L 198.3 -60 Q 197.1 -60.5 196.3 -61.4 L 196.3 -61.4 L 196.3 -61.4 Q 195.4 -62.3 194.9 -63.4 L 194.9 -63.4 L 194.9 -63.4 Q 194.4 -64.6 194.4 -65.9 L 194.4 -65.9 Z M 242.4 -65.7 L 242.4 -74 L 242.4 -74 Q 242.4 -75.3 242.9 -76.4 L 242.9 -76.4 L 242.9 -76.4 Q 243.4 -77.5 244.2 -78.4 L 244.2 -78.4 L 244.2 -78.4 Q 245 -79.2 246.1 -79.7 L 246.1 -79.7 L 246.1 -79.7 Q 247.3 -80.2 248.5 -80.2 L 248.5 -80.2 L 264.4 -80.2 L 264.4 -86.6 L 244.3 -86.6 L 244.3 -92.8 L 264.4 -92.8 L 264.4 -92.8 Q 265.7 -92.8 266.8 -92.3 L 266.8 -92.3 L 266.8 -92.3 Q 267.9 -91.8 268.7 -91 L 268.7 -91 L 268.7 -91 Q 269.6 -90.2 270.1 -89 L 270.1 -89 L 270.1 -89 Q 270.5 -87.9 270.5 -86.6 L 270.5 -86.6 L 270.5 -59.5 L 264.4 -59.5 L 264.4 -65.1 L 264.4 -65.1 Q 264.3 -64 263.8 -62.9 L 263.8 -62.9 L 263.8 -62.9 Q 263.2 -61.9 262.4 -61.1 L 262.4 -61.1 L 262.4 -61.1 Q 261.6 -60.4 260.5 -59.9 L 260.5 -59.9 L 260.5 -59.9 Q 259.4 -59.5 258.3 -59.5 L 258.3 -59.5 L 248.5 -59.5 L 248.5 -59.5 Q 247.3 -59.5 246.1 -60 L 246.1 -60 L 246.1 -60 Q 245 -60.5 244.2 -61.3 L 244.2 -61.3 L 244.2 -61.3 Q 243.4 -62.1 242.9 -63.3 L 242.9 -63.3 L 242.9 -63.3 Q 242.4 -64.4 242.4 -65.7 L 242.4 -65.7 Z M 248.5 -74 L 248.5 -65.7 L 264.4 -65.7 L 264.4 -74 L 248.5 -74 Z M 280.8 -105.6 L 286.9 -105.6 L 286.9 -59.5 L 280.8 -59.5 L 280.8 -105.6 Z M 297.2 -105.6 L 303.3 -105.6 L 303.3 -59.5 L 297.2 -59.5 L 297.2 -105.6 Z M 341.7 -86.6 L 341.7 -73 L 319.7 -73 L 319.7 -65.7 L 341.7 -65.7 L 341.7 -59.5 L 319.7 -59.5 L 319.7 -59.5 Q 318.4 -59.5 317.3 -60 L 317.3 -60 L 317.3 -60 Q 316.2 -60.5 315.3 -61.3 L 315.3 -61.3 L 315.3 -61.3 Q 314.5 -62.1 314 -63.3 L 314 -63.3 L 314 -63.3 Q 313.5 -64.4 313.5 -65.7 L 313.5 -65.7 L 313.5 -86.6 L 313.5 -86.6 Q 313.5 -87.9 314 -89 L 314 -89 L 314 -89 Q 314.5 -90.2 315.3 -91 L 315.3 -91 L 315.3 -91 Q 316.2 -91.8 317.3 -92.3 L 317.3 -92.3 L 317.3 -92.3 Q 318.4 -92.8 319.7 -92.8 L 319.7 -92.8 L 335.5 -92.8 L 335.5 -92.8 Q 336.8 -92.8 337.9 -92.3 L 337.9 -92.3 L 337.9 -92.3 Q 339.1 -91.8 339.9 -91 L 339.9 -91 L 339.9 -91 Q 340.7 -90.2 341.2 -89 L 341.2 -89 L 341.2 -89 Q 341.7 -87.9 341.7 -86.6 L 341.7 -86.6 Z M 335.5 -86.6 L 319.7 -86.6 L 319.7 -79.2 L 335.5 -79.2 L 335.5 -86.6 Z M 370.8 -86.6 L 358.1 -86.6 L 358.1 -59.5 L 351.9 -59.5 L 351.9 -92.8 L 358.1 -92.8 L 358.1 -86.9 L 358.1 -86.9 Q 358.1 -88.1 358.6 -89.2 L 358.6 -89.2 L 358.6 -89.2 Q 359.1 -90.3 360 -91.1 L 360 -91.1 L 360 -91.1 Q 360.8 -91.9 361.9 -92.3 L 361.9 -92.3 L 361.9 -92.3 Q 363 -92.8 364.2 -92.8 L 364.2 -92.8 L 370.8 -92.8 L 370.8 -92.8 Q 372 -92.8 373.1 -92.3 L 373.1 -92.3 L 373.1 -92.3 Q 374.3 -91.8 375.1 -91 L 375.1 -91 L 375.1 -91 Q 375.9 -90.2 376.4 -89 L 376.4 -89 L 376.4 -89 Q 376.9 -87.9 376.9 -86.6 L 376.9 -86.6 L 376.9 -81 L 370.8 -81 L 370.8 -86.6 Z M 392.9 -46.1 L 386.8 -46.1 L 393.8 -62.5 L 380.7 -92.8 L 387.2 -92.8 L 396.9 -69.9 L 406.6 -92.8 L 413.1 -92.8 L 392.9 -46.1 Z" fill="#cccccc"></path></g></g><style>text {
  font-size: 64px;
  font-family: Arial Black;
  dominant-baseline: central;
  text-anchor: middle;
}</style></svg>